<mxfile host="app.diagrams.net" agent="Mozilla/5.0 (Windows NT 10.0; Win64; x64) AppleWebKit/537.36 (KHTML, like Gecko) Chrome/136.0.0.0 Safari/537.36" version="27.0.5">
  <diagram name="페이지-1" id="6sfO0u3p30ulnD89UriR">
    <mxGraphModel dx="1501" dy="782" grid="1" gridSize="10" guides="1" tooltips="1" connect="1" arrows="1" fold="1" page="1" pageScale="1" pageWidth="827" pageHeight="1169" math="0" shadow="0">
      <root>
        <mxCell id="0" />
        <mxCell id="1" parent="0" />
        <mxCell id="8ki2eHqFHTEiISN-BCEP-15" value="no" style="edgeStyle=orthogonalEdgeStyle;rounded=0;orthogonalLoop=1;jettySize=auto;html=1;exitX=0.5;exitY=1;exitDx=0;exitDy=0;entryX=0.5;entryY=0;entryDx=0;entryDy=0;" parent="1" source="8ki2eHqFHTEiISN-BCEP-4" target="8ki2eHqFHTEiISN-BCEP-5" edge="1">
          <mxGeometry relative="1" as="geometry" />
        </mxCell>
        <mxCell id="8ki2eHqFHTEiISN-BCEP-4" value="USER_IDF == 1&lt;div&gt;PrivateIDF == 0&lt;/div&gt;&lt;div&gt;PublicIDF == 0&lt;/div&gt;" style="rhombus;whiteSpace=wrap;html=1;" parent="1" vertex="1">
          <mxGeometry x="550" y="120" width="120" height="80" as="geometry" />
        </mxCell>
        <mxCell id="8ki2eHqFHTEiISN-BCEP-17" value="no" style="edgeStyle=orthogonalEdgeStyle;rounded=0;orthogonalLoop=1;jettySize=auto;html=1;exitX=0.5;exitY=1;exitDx=0;exitDy=0;entryX=0.5;entryY=0;entryDx=0;entryDy=0;" parent="1" source="8ki2eHqFHTEiISN-BCEP-5" target="8ki2eHqFHTEiISN-BCEP-6" edge="1">
          <mxGeometry relative="1" as="geometry" />
        </mxCell>
        <mxCell id="8ki2eHqFHTEiISN-BCEP-5" value="USER_IDF == 1&lt;div&gt;PrivateIDF == 1&lt;/div&gt;&lt;div&gt;PublicIDF == 0&lt;/div&gt;" style="rhombus;whiteSpace=wrap;html=1;" parent="1" vertex="1">
          <mxGeometry x="550" y="240" width="120" height="80" as="geometry" />
        </mxCell>
        <mxCell id="8ki2eHqFHTEiISN-BCEP-18" value="no" style="edgeStyle=orthogonalEdgeStyle;rounded=0;orthogonalLoop=1;jettySize=auto;html=1;exitX=0.5;exitY=1;exitDx=0;exitDy=0;entryX=0.5;entryY=0;entryDx=0;entryDy=0;" parent="1" source="8ki2eHqFHTEiISN-BCEP-6" target="8ki2eHqFHTEiISN-BCEP-8" edge="1">
          <mxGeometry relative="1" as="geometry" />
        </mxCell>
        <mxCell id="8ki2eHqFHTEiISN-BCEP-6" value="USER_IDF == 1&lt;div&gt;PrivateIDF == 0&lt;/div&gt;&lt;div&gt;PublicIDF == 1&lt;/div&gt;" style="rhombus;whiteSpace=wrap;html=1;" parent="1" vertex="1">
          <mxGeometry x="550" y="360" width="120" height="80" as="geometry" />
        </mxCell>
        <mxCell id="8ki2eHqFHTEiISN-BCEP-8" value="USER_IDF == 1&lt;div&gt;PrivateIDF == 1&lt;/div&gt;&lt;div&gt;PublicIDF == 1&lt;/div&gt;" style="rhombus;whiteSpace=wrap;html=1;" parent="1" vertex="1">
          <mxGeometry x="550" y="480" width="120" height="80" as="geometry" />
        </mxCell>
        <mxCell id="5ydEreZdV_bBArX5orX0-1" value="DIS-SUBS" style="text;html=1;align=center;verticalAlign=middle;whiteSpace=wrap;rounded=0;" vertex="1" parent="1">
          <mxGeometry x="40" y="40" width="60" height="30" as="geometry" />
        </mxCell>
        <mxCell id="5ydEreZdV_bBArX5orX0-7" style="edgeStyle=orthogonalEdgeStyle;rounded=0;orthogonalLoop=1;jettySize=auto;html=1;exitX=0.5;exitY=1;exitDx=0;exitDy=0;" edge="1" parent="1" source="5ydEreZdV_bBArX5orX0-6" target="5ydEreZdV_bBArX5orX0-8">
          <mxGeometry relative="1" as="geometry">
            <mxPoint x="145" y="180" as="targetPoint" />
          </mxGeometry>
        </mxCell>
        <mxCell id="5ydEreZdV_bBArX5orX0-6" value="ret = dis-IMS_USER" style="rounded=0;whiteSpace=wrap;html=1;" vertex="1" parent="1">
          <mxGeometry x="85" y="120" width="120" height="30" as="geometry" />
        </mxCell>
        <mxCell id="5ydEreZdV_bBArX5orX0-25" value="NO" style="edgeStyle=orthogonalEdgeStyle;rounded=0;orthogonalLoop=1;jettySize=auto;html=1;exitX=0.5;exitY=1;exitDx=0;exitDy=0;" edge="1" parent="1" source="5ydEreZdV_bBArX5orX0-8">
          <mxGeometry relative="1" as="geometry">
            <mxPoint x="144.75862068965512" y="299.9999999999999" as="targetPoint" />
          </mxGeometry>
        </mxCell>
        <mxCell id="5ydEreZdV_bBArX5orX0-8" value="ret != MSUB_SUCC &amp;amp;&amp;amp;&lt;div&gt;ret != MSUB_NOT_EXIST&lt;/div&gt;" style="rhombus;whiteSpace=wrap;html=1;" vertex="1" parent="1">
          <mxGeometry x="55" y="195" width="180" height="60" as="geometry" />
        </mxCell>
        <mxCell id="5ydEreZdV_bBArX5orX0-28" value="NO" style="edgeStyle=orthogonalEdgeStyle;rounded=0;orthogonalLoop=1;jettySize=auto;html=1;exitX=0.5;exitY=1;exitDx=0;exitDy=0;entryX=0.5;entryY=0;entryDx=0;entryDy=0;" edge="1" parent="1" source="5ydEreZdV_bBArX5orX0-12" target="5ydEreZdV_bBArX5orX0-17">
          <mxGeometry relative="1" as="geometry" />
        </mxCell>
        <mxCell id="5ydEreZdV_bBArX5orX0-12" value="ret != MSUB_NOT_EXIST" style="rhombus;whiteSpace=wrap;html=1;" vertex="1" parent="1">
          <mxGeometry x="60" y="300" width="170" height="60" as="geometry" />
        </mxCell>
        <mxCell id="5ydEreZdV_bBArX5orX0-29" style="edgeStyle=orthogonalEdgeStyle;rounded=0;orthogonalLoop=1;jettySize=auto;html=1;exitX=0.5;exitY=1;exitDx=0;exitDy=0;entryX=0.5;entryY=0;entryDx=0;entryDy=0;" edge="1" parent="1" source="5ydEreZdV_bBArX5orX0-17" target="5ydEreZdV_bBArX5orX0-22">
          <mxGeometry relative="1" as="geometry" />
        </mxCell>
        <mxCell id="5ydEreZdV_bBArX5orX0-30" value="NO" style="edgeStyle=orthogonalEdgeStyle;rounded=0;orthogonalLoop=1;jettySize=auto;html=1;exitX=1;exitY=0.5;exitDx=0;exitDy=0;entryX=0.5;entryY=0;entryDx=0;entryDy=0;" edge="1" parent="1" source="5ydEreZdV_bBArX5orX0-17" target="5ydEreZdV_bBArX5orX0-21">
          <mxGeometry relative="1" as="geometry">
            <Array as="points">
              <mxPoint x="290" y="420" />
              <mxPoint x="290" y="810" />
              <mxPoint x="380" y="810" />
            </Array>
          </mxGeometry>
        </mxCell>
        <mxCell id="5ydEreZdV_bBArX5orX0-17" value="ret == MSUB_NOT_EXIST &amp;amp;&amp;amp;&lt;div&gt;cPrviateIDF == 0 &amp;amp;&amp;amp;&lt;/div&gt;&lt;div&gt;cPublicIDF == 0&lt;/div&gt;" style="rhombus;whiteSpace=wrap;html=1;" vertex="1" parent="1">
          <mxGeometry x="45" y="390" width="200" height="60" as="geometry" />
        </mxCell>
        <mxCell id="5ydEreZdV_bBArX5orX0-21" value="Result = FAIL" style="rounded=0;whiteSpace=wrap;html=1;" vertex="1" parent="1">
          <mxGeometry x="340" y="840" width="80" height="30" as="geometry" />
        </mxCell>
        <mxCell id="5ydEreZdV_bBArX5orX0-31" value="YES" style="edgeStyle=orthogonalEdgeStyle;rounded=0;orthogonalLoop=1;jettySize=auto;html=1;exitX=0.5;exitY=1;exitDx=0;exitDy=0;" edge="1" parent="1" source="5ydEreZdV_bBArX5orX0-22">
          <mxGeometry relative="1" as="geometry">
            <mxPoint x="145.3157894736844" y="580" as="targetPoint" />
          </mxGeometry>
        </mxCell>
        <mxCell id="5ydEreZdV_bBArX5orX0-22" value="eRet = db_get_TRUNK_IDV_TBL_by_wherestr" style="rounded=0;whiteSpace=wrap;html=1;" vertex="1" parent="1">
          <mxGeometry x="30" y="490" width="230" height="40" as="geometry" />
        </mxCell>
        <mxCell id="5ydEreZdV_bBArX5orX0-35" value="dis-IMS_USER" style="text;html=1;align=center;verticalAlign=middle;whiteSpace=wrap;rounded=0;" vertex="1" parent="1">
          <mxGeometry x="550" y="60" width="110" height="30" as="geometry" />
        </mxCell>
      </root>
    </mxGraphModel>
  </diagram>
</mxfile>
